<?xml version="1.0" standalone="no"?><!DOCTYPE svg PUBLIC "-//W3C//DTD SVG 1.1//EN" "http://www.w3.org/Graphics/SVG/1.1/DTD/svg11.dtd"><svg t="1578456865373" class="icon" viewBox="0 0 1024 1024" version="1.1" xmlns="http://www.w3.org/2000/svg" p-id="8888" xmlns:xlink="http://www.w3.org/1999/xlink" width="200" height="200"><defs><style type="text/css"></style></defs><path d="M358.399821 511.999744a204.799898 204.799898 0 0 0 204.799897-204.799898V204.799898a204.799898 204.799898 0 0 0-409.599795 0v102.399948a204.799898 204.799898 0 0 0 204.799898 204.799898z" p-id="8889" fill="#ffffff"></path><path d="M716.799642 409.599795a307.199846 307.199846 0 0 0-272.383864 165.375918A352.767824 352.767824 0 0 0 358.399821 563.199718a358.399821 358.399821 0 0 0-358.399821 358.399821v51.199975h547.327726A307.199846 307.199846 0 1 0 716.799642 409.599795z m0 511.999744a204.799898 204.799898 0 1 1 204.799897-204.799897 204.799898 204.799898 0 0 1-204.799897 204.799897z" p-id="8890" fill="#ffffff"></path><path d="M767.999616 563.199718h-102.399949v102.399949h-102.399949v102.399949h102.399949v102.399949h102.399949v-102.399949h102.399949v-102.399949h-102.399949v-102.399949z" p-id="8891" fill="#ffffff"></path></svg>