<?xml version="1.0" standalone="no"?><!DOCTYPE svg PUBLIC "-//W3C//DTD SVG 1.1//EN" "http://www.w3.org/Graphics/SVG/1.1/DTD/svg11.dtd"><svg t="1578466198954" class="icon" viewBox="0 0 1024 1024" version="1.1" xmlns="http://www.w3.org/2000/svg" p-id="4611" xmlns:xlink="http://www.w3.org/1999/xlink" width="200" height="200"><defs><style type="text/css"></style></defs><path d="M843.6 289.8H707.2c-43.8 0-61-90.9-106.1-90.9h-197c-30.3 0-45.5 90.9-90.9 90.9H176.8c-25.1 0-45.5 20.4-45.5 45.5v394.1c0 25.1 20.4 45.5 45.5 45.5h666.9c25.1 0 45.5-20.4 45.5-45.5V335.3c-0.1-25.1-20.4-45.5-45.6-45.5zM510.2 699.1c-100.5 0-181.9-81.4-181.9-181.9s81.4-181.9 181.9-181.9 181.9 81.4 181.9 181.9c0 100.4-81.5 181.9-181.9 181.9zM730 380.8c-12.6 0-22.7-10.2-22.7-22.7 0-12.6 10.2-22.7 22.7-22.7 12.6 0 22.7 10.2 22.7 22.7s-10.2 22.7-22.7 22.7zM282.8 244.4c0-8.4-6.8-15.2-15.2-15.2h-45.5c-8.4 0-15.2 6.8-15.2 15.2v15.2h75.8c0.1-0.1 0.1-6.9 0.1-15.2z m227.4 136.4c-75.3 0-136.4 61.1-136.4 136.4 0 75.3 61.1 136.4 136.4 136.4 75.3 0 136.4-61.1 136.4-136.4 0-75.4-61.1-136.4-136.4-136.4z" p-id="4612" fill="#2c2c2c"></path></svg>