<?xml version="1.0" standalone="no"?><!DOCTYPE svg PUBLIC "-//W3C//DTD SVG 1.1//EN" "http://www.w3.org/Graphics/SVG/1.1/DTD/svg11.dtd"><svg t="1578466788573" class="icon" viewBox="0 0 1024 1024" version="1.1" xmlns="http://www.w3.org/2000/svg" p-id="27464" xmlns:xlink="http://www.w3.org/1999/xlink" width="200" height="200"><defs><style type="text/css"></style></defs><path d="M512 221.090909c160.581818 0 290.909091 130.327273 290.909091 290.909091S672.581818 802.909091 512 802.909091 221.090909 672.581818 221.090909 512 351.418182 221.090909 512 221.090909M512 186.181818C332.8 186.181818 186.181818 332.8 186.181818 512s146.618182 325.818182 325.818182 325.818182 325.818182-146.618182 325.818182-325.818182S691.2 186.181818 512 186.181818z" fill="#FA9E3B" p-id="27465"></path><path d="M681.890909 558.545455c-16.290909 79.127273-86.109091 139.636364-169.890909 139.636363s-155.927273-60.509091-169.890909-139.636363h339.781818m39.563636-34.909091H302.545455c0 116.363636 93.090909 209.454545 209.454545 209.454545s209.454545-93.090909 209.454545-209.454545zM384 395.636364c-18.618182 0-34.909091 16.290909-34.909091 34.909091s16.290909 34.909091 34.909091 34.90909 34.909091-16.290909 34.909091-34.90909-16.290909-34.909091-34.909091-34.909091zM640 395.636364c-18.618182 0-34.909091 16.290909-34.909091 34.909091s16.290909 34.909091 34.909091 34.90909 34.909091-16.290909 34.909091-34.90909-16.290909-34.909091-34.909091-34.909091z" fill="#FA9E3B" p-id="27466"></path></svg>